<svg width="80" height="80" viewBox="0 0 80 80" fill="none" xmlns="http://www.w3.org/2000/svg">
<circle cx="40" cy="40" r="40" fill="#F9E8AB"/>
<path d="M14.2891 49V30.968H24.0051C25.5171 30.968 26.7584 31.276 27.7291 31.892C28.7184 32.508 29.4557 33.3387 29.9411 34.384C30.4264 35.4107 30.6691 36.5493 30.6691 37.8C30.6691 39.088 30.3891 40.2453 29.8291 41.272C29.2691 42.2987 28.4851 43.1107 27.4771 43.708C26.4691 44.2867 25.2744 44.576 23.8931 44.576H20.3091V49H14.2891ZM20.3091 39.9H22.4931C23.1651 39.9 23.6691 39.7133 24.0051 39.34C24.3597 38.948 24.5371 38.4347 24.5371 37.8C24.5371 37.128 24.3784 36.6053 24.0611 36.232C23.7437 35.84 23.2584 35.644 22.6051 35.644H20.3091V39.9Z" fill="#423F33"/>
<path d="M33.9091 49V30.968H43.6531C45.1651 30.968 46.4064 31.2573 47.3771 31.836C48.3664 32.396 49.0944 33.1707 49.5611 34.16C50.0464 35.1493 50.2891 36.2787 50.2891 37.548C50.2891 38.7613 49.9811 39.8347 49.3651 40.768C48.7491 41.6827 47.9744 42.4107 47.0411 42.952C47.3957 43.232 47.6944 43.6427 47.9371 44.184L50.0371 49H43.7651L41.9171 44.828C41.7864 44.548 41.6464 44.352 41.4971 44.24C41.3477 44.128 41.1144 44.072 40.7971 44.072H39.9291V49H33.9091ZM39.9291 39.424H42.1411C43.4851 39.424 44.1571 38.7987 44.1571 37.548C44.1571 36.2787 43.5317 35.644 42.2811 35.644H39.9291V39.424Z" fill="#423F33"/>
<path d="M53.0759 49V30.968H59.0959V44.408H66.8239V49H53.0759Z" fill="#423F33"/>
</svg>
